<svg width="466" height="533" viewBox="0 0 466 533" fill="none" xmlns="http://www.w3.org/2000/svg">
<g clip-path="url(#clip0_262_569)">
<path fill-rule="evenodd" clip-rule="evenodd" d="M156.733 94.5226C158.129 91.4937 159.763 89.1409 160.843 87.9003C160.864 90.8263 160.413 93.4511 159.715 95.7322C161.864 96.7688 164.096 98.22 166.23 100.223C164.586 100.173 161.749 99.7747 158.578 98.7422C157.116 101.965 155.268 104.191 154.057 105.227C154.139 102.514 154.71 99.9148 155.512 97.5696C153.246 96.5655 150.95 95.219 148.902 93.4371C150.486 93.2517 153.374 93.4064 156.733 94.5226Z" fill="url(#paint0_linear_262_569)"/>
<path fill-rule="evenodd" clip-rule="evenodd" d="M111.887 49.2093C113.983 44.659 116.438 41.1242 118.061 39.2604C118.092 43.6565 117.415 47.5994 116.366 51.0266C119.594 52.5838 122.949 54.7643 126.154 57.7727C123.684 57.698 119.422 57.0999 114.658 55.5485C112.462 60.3908 109.686 63.7343 107.866 65.2909C107.989 61.2158 108.847 57.3099 110.051 53.787C106.647 52.2787 103.198 50.2555 100.122 47.5787C102.501 47.2997 106.84 47.5327 111.887 49.2093Z" fill="url(#paint1_linear_262_569)"/>
<path fill-rule="evenodd" clip-rule="evenodd" d="M102.529 126.981C105.613 120.286 109.225 115.086 111.613 112.344C111.659 118.811 110.663 124.613 109.119 129.655C113.868 131.946 118.804 135.153 123.52 139.58C119.886 139.47 113.615 138.59 106.607 136.307C103.375 143.432 99.2916 148.35 96.6137 150.641C96.7953 144.645 98.0567 138.899 99.8291 133.716C94.8205 131.497 89.7453 128.52 85.2209 124.582C88.7204 124.172 95.1049 124.515 102.529 126.981Z" fill="url(#paint2_linear_262_569)"/>
<path d="M122.349 107.926C123.739 108.47 125.306 107.785 125.85 106.396C126.394 105.006 125.709 103.439 124.32 102.895C122.93 102.351 121.363 103.036 120.818 104.425C120.274 105.815 120.96 107.382 122.349 107.926Z" fill="#2F235A"/>
<path d="M189.25 73.955C190.639 74.4991 192.207 73.8139 192.751 72.4244C193.295 71.035 192.61 69.4676 191.22 68.9235C189.831 68.3793 188.263 69.0646 187.719 70.454C187.175 71.8434 187.86 73.4108 189.25 73.955Z" fill="#FE9076"/>
<path d="M60.828 88.7136C62.2175 89.2578 63.785 88.5725 64.3292 87.1831C64.8734 85.7937 64.1881 84.2263 62.7986 83.6821C61.4091 83.138 59.8416 83.8232 59.2974 85.2127C58.7533 86.6021 59.4386 88.1695 60.828 88.7136Z" fill="#FFA400"/>
<path d="M111.597 187.252C112.986 187.796 114.554 187.111 115.098 185.722C115.642 184.332 114.957 182.765 113.567 182.221C112.178 181.677 110.61 182.362 110.066 183.751C109.522 185.141 110.207 186.708 111.597 187.252Z" fill="#23BB86"/>
<path d="M188.182 58.5257C185.554 48.4868 176.066 25.5266 159.143 14" stroke="#FE9076" stroke-width="0.736823" stroke-linecap="round"/>
<path d="M53.8389 75.2985C47.298 67.2413 29.173 50.2504 9 46.7428" stroke="#FFA400" stroke-width="0.736823" stroke-linecap="round"/>
<path d="M101.085 188.663C95.2884 190.777 80.6962 197.513 68.7002 207.545" stroke="#23BB86" stroke-width="0.736823" stroke-linecap="round"/>
<path fill-rule="evenodd" clip-rule="evenodd" d="M323.77 94.5226C322.375 91.4937 320.74 89.1409 319.66 87.9003C319.639 90.8263 320.09 93.4511 320.788 95.7322C318.64 96.7688 316.407 98.22 314.273 100.223C315.917 100.173 318.754 99.7747 321.925 98.7422C323.387 101.965 325.234 104.191 326.445 105.227C326.364 102.514 325.793 99.9148 324.991 97.5696C327.256 96.5655 329.554 95.219 331.6 93.4371C330.017 93.2517 327.128 93.4064 323.77 94.5226Z" fill="url(#paint3_linear_262_569)"/>
<path fill-rule="evenodd" clip-rule="evenodd" d="M368.615 49.2093C366.522 44.659 364.064 41.1242 362.442 39.2604C362.411 43.6565 363.087 47.5994 364.137 51.0266C360.91 52.5838 357.556 54.7643 354.348 57.7727C356.819 57.698 361.083 57.0999 365.845 55.5485C368.041 60.3908 370.818 63.7343 372.637 65.2909C372.513 61.2158 371.657 57.3099 370.451 53.787C373.856 52.2787 377.307 50.2555 380.38 47.5787C378.002 47.2997 373.662 47.5327 368.615 49.2093Z" fill="url(#paint4_linear_262_569)"/>
<path fill-rule="evenodd" clip-rule="evenodd" d="M373.472 126.981C370.385 120.286 366.775 115.086 364.388 112.344C364.34 118.811 365.336 124.613 366.881 129.655C362.131 131.946 357.197 135.153 352.479 139.58C356.115 139.47 362.384 138.59 369.393 136.307C372.626 143.432 376.708 148.35 379.386 150.641C379.204 144.645 377.944 138.899 376.172 133.716C381.18 131.497 386.255 128.52 390.778 124.582C387.279 124.172 380.896 124.515 373.472 126.981Z" fill="url(#paint5_linear_262_569)"/>
<path d="M358.155 107.926C356.765 108.47 355.198 107.785 354.654 106.396C354.11 105.006 354.795 103.439 356.184 102.895C357.574 102.351 359.141 103.036 359.685 104.425C360.23 105.815 359.544 107.382 358.155 107.926Z" fill="#2F235A"/>
<path d="M291.254 73.955C289.864 74.4991 288.297 73.8139 287.752 72.4244C287.208 71.035 287.893 69.4676 289.283 68.9235C290.672 68.3793 292.24 69.0646 292.784 70.454C293.328 71.8434 292.643 73.4108 291.254 73.955Z" fill="#FE9076"/>
<path d="M419.676 88.7136C418.287 89.2578 416.719 88.5725 416.175 87.1831C415.631 85.7937 416.316 84.2263 417.706 83.6821C419.095 83.138 420.663 83.8232 421.207 85.2127C421.751 86.6021 421.066 88.1695 419.676 88.7136Z" fill="#FFA400"/>
<path d="M354.405 187.252C353.015 187.796 351.448 187.111 350.904 185.722C350.36 184.332 351.045 182.765 352.434 182.221C353.824 181.677 355.391 182.362 355.935 183.751C356.48 185.141 355.794 186.708 354.405 187.252Z" fill="#23BB86"/>
<path d="M292.321 58.5257C294.949 48.4868 304.437 25.5266 321.36 14" stroke="#FE9076" stroke-width="0.736823" stroke-linecap="round"/>
<path d="M426.664 75.2985C433.204 67.2413 451.33 50.2504 471.502 46.7428" stroke="#FFA400" stroke-width="0.736823" stroke-linecap="round"/>
<path d="M364.916 188.663C370.713 190.777 385.305 197.513 397.3 207.545" stroke="#23BB86" stroke-width="0.736823" stroke-linecap="round"/>
<path d="M376.392 333.329H89.6086V531.562H376.392V333.329Z" fill="url(#paint6_linear_262_569)"/>
<mask id="mask0_262_569" style="mask-type:alpha" maskUnits="userSpaceOnUse" x="89" y="333" width="288" height="199">
<path d="M376.392 333.329H89.6086V531.562H376.392V333.329Z" fill="#C4C4C4"/>
</mask>
<g mask="url(#mask0_262_569)">
<path d="M103.178 328.283H298.458L254.32 404.917H59.0403L103.178 328.283Z" fill="black" fill-opacity="0.07"/>
<path d="M571.416 333.329H284.633V531.561H571.416V333.329Z" fill="url(#paint7_linear_262_569)"/>
</g>
<path d="M89.3551 333.329H284.635L246.913 396.278H51.6331L89.3551 333.329Z" fill="url(#paint8_linear_262_569)"/>
<mask id="mask1_262_569" style="mask-type:alpha" maskUnits="userSpaceOnUse" x="284" y="333" width="93" height="199">
<path d="M376.391 333.329H284.634V531.562H376.391V333.329Z" fill="#C4C4C4"/>
</mask>
<g mask="url(#mask1_262_569)">
<path d="M365.219 333.001H273.32L316.503 405.473H408.404L365.219 333.001Z" fill="black" fill-opacity="0.07"/>
</g>
<path d="M376.534 333.329H284.634L322.357 396.278H414.258L376.534 333.329Z" fill="url(#paint9_linear_262_569)"/>
<path d="M166.101 309.939C181.068 309.939 193.202 297.806 193.202 282.839C193.202 267.873 181.068 255.74 166.101 255.74C151.133 255.74 139 267.873 139 282.839C139 297.806 151.133 309.939 166.101 309.939Z" fill="url(#paint10_linear_262_569)"/>
<path d="M309.402 315.373C323.865 315.373 335.59 303.649 335.59 289.186C335.59 274.724 323.865 263 309.402 263C294.939 263 283.214 274.724 283.214 289.186C283.214 303.649 294.939 315.373 309.402 315.373Z" fill="url(#paint11_linear_262_569)"/>
<path d="M246.118 258.233C257.781 258.233 267.236 248.779 267.236 237.117C267.236 225.454 257.781 216 246.118 216C234.455 216 225 225.454 225 237.117C225 248.779 234.455 258.233 246.118 258.233Z" fill="url(#paint12_linear_262_569)"/>
<path d="M184 205C190.627 205 196 199.627 196 193C196 186.373 190.627 181 184 181C177.373 181 172 186.373 172 193C172 199.627 177.373 205 184 205Z" fill="url(#paint13_linear_262_569)"/>
<path d="M240.665 210.763C243.574 210.763 245.932 208.405 245.932 205.497C245.932 202.589 243.574 200.231 240.665 200.231C237.757 200.231 235.399 202.589 235.399 205.497C235.399 208.405 237.757 210.763 240.665 210.763Z" fill="#FFA800" fill-opacity="0.23"/>
<path d="M316.266 190.532C319.175 190.532 321.533 188.175 321.533 185.266C321.533 182.358 319.175 180 316.266 180C313.358 180 311 182.358 311 185.266C311 188.175 313.358 190.532 316.266 190.532Z" fill="#FFA800" fill-opacity="0.23"/>
<path d="M199.266 162.532C202.175 162.532 204.533 160.175 204.533 157.266C204.533 154.358 202.175 152 199.266 152C196.358 152 194 154.358 194 157.266C194 160.175 196.358 162.532 199.266 162.532Z" fill="#FFA800" fill-opacity="0.23"/>
<path d="M266.488 299.801C269.396 299.801 271.754 297.444 271.754 294.535C271.754 291.627 269.396 289.269 266.488 289.269C263.579 289.269 261.221 291.627 261.221 294.535C261.221 297.444 263.579 299.801 266.488 299.801Z" fill="#FFA800" fill-opacity="0.23"/>
<path d="M144.721 216.029C147.629 216.029 149.987 213.672 149.987 210.763C149.987 207.855 147.629 205.497 144.721 205.497C141.812 205.497 139.454 207.855 139.454 210.763C139.454 213.672 141.812 216.029 144.721 216.029Z" fill="#FFA800" fill-opacity="0.23"/>
<path d="M377.067 334.268H89.3816L45.1997 61.8705H430.121L377.067 334.268Z" fill="url(#paint14_linear_262_569)"/>
<path d="M179.613 489.622C180.137 491.102 178.534 492.459 177.177 491.657L167.465 486.138C165.707 485.121 164.628 482.685 164.998 480.712L167.897 466.312C168.236 464.617 170.579 464.462 171.165 466.066L179.613 489.622Z" fill="#F53838"/>
<path d="M208.535 486.138L198.792 491.688C197.435 492.459 195.832 491.133 196.356 489.653L204.835 465.881C205.421 464.278 207.764 464.432 208.103 466.128L211.032 480.712C211.372 482.685 210.292 485.121 208.535 486.138Z" fill="#F53838"/>
<path d="M203.663 449.57C204.403 450.495 204.619 451.728 204.218 452.838L189.603 493.693C189.079 495.203 186.952 495.203 186.427 493.693L171.812 452.869C171.412 451.759 171.627 450.526 172.367 449.601L184.146 435.109C186.273 432.55 189.788 432.55 191.947 435.109L203.663 449.57Z" fill="#F53838"/>
</g>
<defs>
<linearGradient id="paint0_linear_262_569" x1="160.312" y1="89.8194" x2="153.941" y2="106.088" gradientUnits="userSpaceOnUse">
<stop stop-color="#FFE89E"/>
<stop offset="1" stop-color="#FFBF1A"/>
</linearGradient>
<linearGradient id="paint1_linear_262_569" x1="117.263" y1="42.1436" x2="107.692" y2="66.5848" gradientUnits="userSpaceOnUse">
<stop stop-color="#FFE89E"/>
<stop offset="1" stop-color="#FFBF1A"/>
</linearGradient>
<linearGradient id="paint2_linear_262_569" x1="110.439" y1="116.586" x2="96.3574" y2="152.544" gradientUnits="userSpaceOnUse">
<stop stop-color="#FFE89E"/>
<stop offset="1" stop-color="#FFBF1A"/>
</linearGradient>
<linearGradient id="paint3_linear_262_569" x1="320.191" y1="89.8194" x2="326.563" y2="106.088" gradientUnits="userSpaceOnUse">
<stop stop-color="#FFE89E"/>
<stop offset="1" stop-color="#FFBF1A"/>
</linearGradient>
<linearGradient id="paint4_linear_262_569" x1="363.24" y1="42.1436" x2="372.812" y2="66.5848" gradientUnits="userSpaceOnUse">
<stop stop-color="#FFE89E"/>
<stop offset="1" stop-color="#FFBF1A"/>
</linearGradient>
<linearGradient id="paint5_linear_262_569" x1="365.559" y1="116.586" x2="379.643" y2="152.544" gradientUnits="userSpaceOnUse">
<stop stop-color="#FFE89E"/>
<stop offset="1" stop-color="#FFBF1A"/>
</linearGradient>
<linearGradient id="paint6_linear_262_569" x1="185.407" y1="296.63" x2="71.1195" y2="611.428" gradientUnits="userSpaceOnUse">
<stop stop-color="#FFD481"/>
<stop offset="1" stop-color="#FA620C"/>
</linearGradient>
<linearGradient id="paint7_linear_262_569" x1="138.538" y1="320.757" x2="485.403" y2="691.446" gradientUnits="userSpaceOnUse">
<stop stop-color="#FFD481"/>
<stop offset="0.83311" stop-color="#FA620C"/>
</linearGradient>
<linearGradient id="paint8_linear_262_569" x1="93.3739" y1="310.833" x2="84.0941" y2="444.953" gradientUnits="userSpaceOnUse">
<stop stop-color="#FFD481"/>
<stop offset="1" stop-color="#FA620C"/>
</linearGradient>
<linearGradient id="paint9_linear_262_569" x1="391.035" y1="310.833" x2="407.541" y2="443.542" gradientUnits="userSpaceOnUse">
<stop stop-color="#FFD481"/>
<stop offset="1" stop-color="#FA620C"/>
</linearGradient>
<linearGradient id="paint10_linear_262_569" x1="168.153" y1="246.796" x2="162.998" y2="319.944" gradientUnits="userSpaceOnUse">
<stop stop-color="#FF9F81"/>
<stop offset="1" stop-color="#F53838"/>
</linearGradient>
<linearGradient id="paint11_linear_262_569" x1="311.385" y1="254.358" x2="306.405" y2="325.041" gradientUnits="userSpaceOnUse">
<stop stop-color="#FF9F81"/>
<stop offset="1" stop-color="#F53838"/>
</linearGradient>
<linearGradient id="paint12_linear_262_569" x1="247.717" y1="209.031" x2="243.7" y2="266.03" gradientUnits="userSpaceOnUse">
<stop stop-color="#FF9F81"/>
<stop offset="1" stop-color="#F53838"/>
</linearGradient>
<linearGradient id="paint13_linear_262_569" x1="184.909" y1="177.04" x2="182.626" y2="209.43" gradientUnits="userSpaceOnUse">
<stop stop-color="#FF9F81"/>
<stop offset="1" stop-color="#F53838"/>
</linearGradient>
<linearGradient id="paint14_linear_262_569" x1="234.498" y1="61.8705" x2="234.498" y2="640.586" gradientUnits="userSpaceOnUse">
<stop offset="0.0677083" stop-color="white" stop-opacity="0"/>
<stop offset="1" stop-color="#FE9277"/>
</linearGradient>
<clipPath id="clip0_262_569">
<rect width="466" height="533" fill="white"/>
</clipPath>
</defs>
</svg>
