<svg width="466" height="533" viewBox="0 0 466 533" fill="none" xmlns="http://www.w3.org/2000/svg">
<g clip-path="url(#clip0_262_522)">
<path fill-rule="evenodd" clip-rule="evenodd" d="M157.611 166.262C159.006 163.233 160.641 160.88 161.72 159.64C161.742 162.566 161.291 165.191 160.593 167.472C162.741 168.508 164.974 169.96 167.108 171.962C165.463 171.913 162.627 171.514 159.456 170.482C157.994 173.705 156.146 175.931 154.935 176.967C155.017 174.254 155.587 171.654 156.389 169.309C154.123 168.305 151.827 166.959 149.78 165.177C151.363 164.991 154.252 165.146 157.611 166.262Z" fill="url(#paint0_linear_262_522)"/>
<path fill-rule="evenodd" clip-rule="evenodd" d="M112.764 120.949C114.86 116.399 117.316 112.864 118.938 111C118.97 115.396 118.292 119.339 117.243 122.766C120.471 124.323 123.826 126.504 127.032 129.512C124.562 129.438 120.299 128.84 115.536 127.288C113.339 132.13 110.564 135.474 108.744 137.031C108.867 132.955 109.724 129.05 110.929 125.527C107.525 124.018 104.075 121.995 101 119.318C103.379 119.039 107.718 119.272 112.764 120.949Z" fill="url(#paint1_linear_262_522)"/>
<path d="M131.349 148.916C132.738 149.461 134.306 148.775 134.85 147.386C135.394 145.996 134.709 144.429 133.32 143.885C131.93 143.341 130.363 144.026 129.818 145.416C129.274 146.805 129.959 148.372 131.349 148.916Z" fill="#2F235A"/>
<path d="M198.25 114.949C199.639 115.493 201.207 114.808 201.751 113.418C202.295 112.029 201.61 110.461 200.22 109.917C198.831 109.373 197.263 110.059 196.719 111.448C196.175 112.837 196.86 114.405 198.25 114.949Z" fill="#FE9076"/>
<path d="M69.8279 129.706C71.2174 130.25 72.785 129.565 73.3292 128.175C73.8734 126.786 73.1881 125.219 71.7986 124.674C70.4091 124.13 68.8415 124.816 68.2973 126.205C67.7531 127.594 68.4384 129.162 69.8279 129.706Z" fill="#FFA400"/>
<path d="M111.597 187.252C112.986 187.796 114.554 187.111 115.098 185.722C115.642 184.332 114.957 182.765 113.567 182.221C112.178 181.677 110.61 182.362 110.066 183.751C109.522 185.141 110.207 186.708 111.597 187.252Z" fill="#23BB86"/>
<path d="M197 100C194.375 89.8541 184.9 66.6494 168 55" stroke="#FE9076" stroke-width="0.736823" stroke-linecap="round"/>
<path d="M63 116C56.4356 108.1 38.2454 91.4393 18 88" stroke="#FFA400" stroke-width="0.736823" stroke-linecap="round"/>
<path d="M103.385 205C97.5882 207.114 82.996 213.85 71 223.882" stroke="#23BB86" stroke-width="0.736823" stroke-linecap="round"/>
<path fill-rule="evenodd" clip-rule="evenodd" d="M324.647 166.262C323.252 163.233 321.618 160.88 320.538 159.64C320.517 162.566 320.968 165.191 321.666 167.472C319.517 168.508 317.284 169.96 315.151 171.962C316.795 171.913 319.632 171.514 322.803 170.482C324.264 173.705 326.112 175.931 327.323 176.967C327.242 174.254 326.671 171.654 325.869 169.309C328.134 168.305 330.432 166.959 332.478 165.177C330.895 164.991 328.006 165.146 324.647 166.262Z" fill="url(#paint2_linear_262_522)"/>
<path fill-rule="evenodd" clip-rule="evenodd" d="M369.493 120.949C367.399 116.399 364.942 112.864 363.32 111C363.288 115.396 363.965 119.339 365.015 122.766C361.788 124.323 358.434 126.504 355.226 129.512C357.696 129.438 361.96 128.84 366.723 127.288C368.919 132.13 371.695 135.474 373.515 137.031C373.39 132.955 372.535 129.05 371.328 125.527C374.734 124.018 378.184 121.995 381.258 119.318C378.88 119.039 374.539 119.272 369.493 120.949Z" fill="url(#paint3_linear_262_522)"/>
<path d="M367.155 148.916C365.766 149.461 364.198 148.775 363.654 147.386C363.11 145.996 363.795 144.429 365.184 143.885C366.574 143.341 368.141 144.026 368.686 145.416C369.23 146.805 368.545 148.372 367.155 148.916Z" fill="#2F235A"/>
<path d="M300.254 114.949C298.864 115.493 297.297 114.808 296.752 113.418C296.208 112.029 296.893 110.461 298.283 109.917C299.672 109.373 301.24 110.059 301.784 111.448C302.328 112.837 301.643 114.405 300.254 114.949Z" fill="#FE9076"/>
<path d="M428.677 129.706C427.287 130.25 425.719 129.565 425.175 128.175C424.631 126.786 425.316 125.219 426.706 124.674C428.095 124.13 429.663 124.816 430.207 126.205C430.751 127.594 430.066 129.162 428.677 129.706Z" fill="#FFA400"/>
<path d="M354.405 187.252C353.015 187.796 351.448 187.111 350.904 185.722C350.36 184.332 351.045 182.765 352.434 182.221C353.824 181.677 355.391 182.362 355.935 183.751C356.48 185.141 355.794 186.708 354.405 187.252Z" fill="#23BB86"/>
<path d="M301 100C303.625 89.8541 313.1 66.6494 330 55" stroke="#FE9076" stroke-width="0.736823" stroke-linecap="round"/>
<path d="M435 121C441.564 112.817 459.755 95.5622 480 92" stroke="#FFA400" stroke-width="0.736823" stroke-linecap="round"/>
<path d="M367.216 205C373.012 207.114 387.605 213.85 399.6 223.882" stroke="#23BB86" stroke-width="0.736823" stroke-linecap="round"/>
<path d="M376.392 333.329H89.6086V531.562H376.392V333.329Z" fill="url(#paint4_linear_262_522)"/>
<mask id="mask0_262_522" style="mask-type:alpha" maskUnits="userSpaceOnUse" x="89" y="333" width="288" height="199">
<path d="M376.392 333.329H89.6086V531.562H376.392V333.329Z" fill="#C4C4C4"/>
</mask>
<g mask="url(#mask0_262_522)">
<path d="M103.178 328.283H298.458L254.32 404.917H59.0403L103.178 328.283Z" fill="black" fill-opacity="0.07"/>
<path d="M571.416 333.329H284.633V531.561H571.416V333.329Z" fill="url(#paint5_linear_262_522)"/>
</g>
<path d="M89.3551 333.329H284.635L246.913 396.278H51.6331L89.3551 333.329Z" fill="url(#paint6_linear_262_522)"/>
<mask id="mask1_262_522" style="mask-type:alpha" maskUnits="userSpaceOnUse" x="284" y="333" width="93" height="199">
<path d="M376.391 333.329H284.634V531.562H376.391V333.329Z" fill="#C4C4C4"/>
</mask>
<g mask="url(#mask1_262_522)">
<path d="M365.219 333.001H273.32L316.503 405.473H408.404L365.219 333.001Z" fill="black" fill-opacity="0.07"/>
</g>
<path d="M376.534 333.329H284.634L322.357 396.278H414.258L376.534 333.329Z" fill="url(#paint7_linear_262_522)"/>
<path d="M171.118 316.233C182.781 316.233 192.236 306.779 192.236 295.117C192.236 283.454 182.781 274 171.118 274C159.455 274 150 283.454 150 295.117C150 306.779 159.455 316.233 171.118 316.233Z" fill="url(#paint8_linear_262_522)"/>
<path d="M312.103 328.205C322.654 328.205 331.207 319.652 331.207 309.102C331.207 298.552 322.654 290 312.103 290C301.553 290 293 298.552 293 309.102C293 319.652 301.553 328.205 312.103 328.205Z" fill="url(#paint9_linear_262_522)"/>
<path d="M231.511 263.966C234.419 263.966 236.777 261.609 236.777 258.7C236.777 255.792 234.419 253.434 231.511 253.434C228.602 253.434 226.244 255.792 226.244 258.7C226.244 261.609 228.602 263.966 231.511 263.966Z" fill="#FFA800" fill-opacity="0.23"/>
<path d="M313.158 224.869C316.066 224.869 318.424 222.512 318.424 219.603C318.424 216.695 316.066 214.337 313.158 214.337C310.249 214.337 307.891 216.695 307.891 219.603C307.891 222.512 310.249 224.869 313.158 224.869Z" fill="#FFA800" fill-opacity="0.23"/>
<path d="M377.067 334.268H89.3816L45.1997 61.8705H430.121L377.067 334.268Z" fill="url(#paint10_linear_262_522)"/>
<path d="M212.5 160C215.538 160 218 157.538 218 154.5C218 151.462 215.538 149 212.5 149C209.462 149 207 151.462 207 154.5C207 157.538 209.462 160 212.5 160Z" fill="#FFA800" fill-opacity="0.23"/>
<path d="M360.266 295.532C363.175 295.532 365.533 293.175 365.533 290.266C365.533 287.358 363.175 285 360.266 285C357.358 285 355 287.358 355 290.266C355 293.175 357.358 295.532 360.266 295.532Z" fill="#FFA800" fill-opacity="0.23"/>
<path d="M135.566 269.233C138.475 269.233 140.833 266.875 140.833 263.966C140.833 261.058 138.475 258.7 135.566 258.7C132.658 258.7 130.3 261.058 130.3 263.966C130.3 266.875 132.658 269.233 135.566 269.233Z" fill="#FFA800" fill-opacity="0.23"/>
<path d="M182.56 480.62C182.9 481.58 181.86 482.46 180.98 481.94L174.68 478.36C173.54 477.7 172.84 476.12 173.08 474.84L174.96 465.5C175.18 464.4 176.7 464.3 177.08 465.34L182.56 480.62Z" fill="#F53838"/>
<path d="M201.32 478.36L195 481.96C194.12 482.46 193.08 481.6 193.42 480.64L198.92 465.22C199.3 464.18 200.82 464.28 201.04 465.38L202.94 474.84C203.16 476.12 202.46 477.7 201.32 478.36Z" fill="#F53838"/>
<path d="M198.16 454.64C198.64 455.24 198.78 456.04 198.52 456.76L189.04 483.26C188.7 484.24 187.32 484.24 186.98 483.26L177.5 456.78C177.24 456.06 177.38 455.26 177.86 454.66L185.5 445.26C186.88 443.6 189.16 443.6 190.56 445.26L198.16 454.64Z" fill="#F53838"/>
</g>
<defs>
<linearGradient id="paint0_linear_262_522" x1="161.19" y1="161.559" x2="154.818" y2="177.828" gradientUnits="userSpaceOnUse">
<stop stop-color="#FFE89E"/>
<stop offset="1" stop-color="#FFBF1A"/>
</linearGradient>
<linearGradient id="paint1_linear_262_522" x1="118.141" y1="113.883" x2="108.569" y2="138.324" gradientUnits="userSpaceOnUse">
<stop stop-color="#FFE89E"/>
<stop offset="1" stop-color="#FFBF1A"/>
</linearGradient>
<linearGradient id="paint2_linear_262_522" x1="321.069" y1="161.559" x2="327.441" y2="177.828" gradientUnits="userSpaceOnUse">
<stop stop-color="#FFE89E"/>
<stop offset="1" stop-color="#FFBF1A"/>
</linearGradient>
<linearGradient id="paint3_linear_262_522" x1="364.118" y1="113.883" x2="373.689" y2="138.324" gradientUnits="userSpaceOnUse">
<stop stop-color="#FFE89E"/>
<stop offset="1" stop-color="#FFBF1A"/>
</linearGradient>
<linearGradient id="paint4_linear_262_522" x1="185.407" y1="296.63" x2="71.1195" y2="611.428" gradientUnits="userSpaceOnUse">
<stop stop-color="#FFD481"/>
<stop offset="1" stop-color="#FA620C"/>
</linearGradient>
<linearGradient id="paint5_linear_262_522" x1="138.538" y1="320.757" x2="485.403" y2="691.446" gradientUnits="userSpaceOnUse">
<stop stop-color="#FFD481"/>
<stop offset="0.83311" stop-color="#FA620C"/>
</linearGradient>
<linearGradient id="paint6_linear_262_522" x1="93.3739" y1="310.833" x2="84.0941" y2="444.953" gradientUnits="userSpaceOnUse">
<stop stop-color="#FFD481"/>
<stop offset="1" stop-color="#FA620C"/>
</linearGradient>
<linearGradient id="paint7_linear_262_522" x1="391.035" y1="310.833" x2="407.541" y2="443.542" gradientUnits="userSpaceOnUse">
<stop stop-color="#FFD481"/>
<stop offset="1" stop-color="#FA620C"/>
</linearGradient>
<linearGradient id="paint8_linear_262_522" x1="172.717" y1="267.031" x2="168.7" y2="324.03" gradientUnits="userSpaceOnUse">
<stop stop-color="#FF9F81"/>
<stop offset="1" stop-color="#F53838"/>
</linearGradient>
<linearGradient id="paint9_linear_262_522" x1="313.55" y1="283.696" x2="309.916" y2="335.258" gradientUnits="userSpaceOnUse">
<stop stop-color="#FF9F81"/>
<stop offset="1" stop-color="#F53838"/>
</linearGradient>
<linearGradient id="paint10_linear_262_522" x1="234.498" y1="61.8705" x2="234.498" y2="640.586" gradientUnits="userSpaceOnUse">
<stop offset="0.21875" stop-color="white" stop-opacity="0"/>
<stop offset="1" stop-color="#FE9277"/>
</linearGradient>
<clipPath id="clip0_262_522">
<rect width="466" height="533" fill="white"/>
</clipPath>
</defs>
</svg>
