<svg width="466" height="533" viewBox="0 0 466 533" fill="none" xmlns="http://www.w3.org/2000/svg">
<path fill-rule="evenodd" clip-rule="evenodd" d="M166.051 129.859C168.148 125.308 170.603 121.773 172.226 119.91C172.257 124.305 171.58 128.249 170.531 131.676C173.759 133.233 177.114 135.414 180.319 138.422C177.849 138.347 173.587 137.749 168.823 136.198C166.627 141.04 163.851 144.384 162.031 145.94C162.154 141.865 163.012 137.959 164.216 134.436C160.812 132.928 157.362 130.905 154.287 128.228C156.666 127.949 161.005 128.182 166.051 129.859Z" fill="url(#paint0_linear_262_616)"/>
<path fill-rule="evenodd" clip-rule="evenodd" d="M149.482 84.2737C150.877 81.2448 152.512 78.8919 153.591 77.6514C153.613 80.5774 153.162 83.2022 152.463 85.4833C154.612 86.5199 156.845 87.9711 158.979 89.9739C157.334 89.9241 154.497 89.5258 151.326 88.4933C149.865 91.7165 148.017 93.942 146.806 94.978C146.888 92.2655 147.458 89.6659 148.26 87.3207C145.994 86.3166 143.698 84.9701 141.651 83.1882C143.234 83.0028 146.123 83.1575 149.482 84.2737Z" fill="url(#paint1_linear_262_616)"/>
<path fill-rule="evenodd" clip-rule="evenodd" d="M104.635 38.9604C106.731 34.4101 109.187 30.8753 110.809 29.0115C110.841 33.4076 110.163 37.3505 109.114 40.7777C112.342 42.3349 115.697 44.5154 118.903 47.5238C116.433 47.4491 112.17 46.851 107.407 45.2996C105.21 50.1419 102.434 53.4854 100.614 55.042C100.738 50.9669 101.595 47.061 102.8 43.5381C99.3955 42.0298 95.9461 40.0066 92.8708 37.3298C95.2494 37.0508 99.5889 37.2838 104.635 38.9604Z" fill="url(#paint2_linear_262_616)"/>
<path fill-rule="evenodd" clip-rule="evenodd" d="M97.529 140.981C100.613 134.286 104.225 129.086 106.613 126.344C106.659 132.811 105.663 138.613 104.119 143.655C108.868 145.946 113.804 149.153 118.52 153.58C114.886 153.47 108.615 152.59 101.607 150.307C98.3755 157.432 94.2916 162.35 91.6137 164.641C91.7953 158.645 93.0567 152.899 94.8291 147.716C89.8205 145.497 84.7453 142.52 80.2209 138.582C83.7204 138.172 90.1049 138.515 97.529 140.981Z" fill="url(#paint3_linear_262_616)"/>
<path d="M115.098 97.6774C116.487 98.2215 118.055 97.5363 118.599 96.1468C119.143 94.7574 118.458 93.19 117.068 92.6459C115.679 92.1017 114.111 92.787 113.567 94.1764C113.023 95.5658 113.708 97.1332 115.098 97.6774Z" fill="#2F235A"/>
<path d="M181.998 63.7061C183.388 64.2502 184.955 63.565 185.499 62.1755C186.044 60.7861 185.358 59.2187 183.969 58.6746C182.579 58.1304 181.012 58.8157 180.468 60.2051C179.923 61.5945 180.609 63.1619 181.998 63.7061Z" fill="#FE9076"/>
<path d="M53.5766 78.4647C54.9661 79.0089 56.5336 78.3236 57.0777 76.9342C57.6219 75.5448 56.9366 73.9774 55.5471 73.4332C54.1576 72.8891 52.5901 73.5743 52.046 74.9638C51.5018 76.3532 52.1871 77.9206 53.5766 78.4647Z" fill="#FFA400"/>
<path d="M111.597 187.252C112.986 187.796 114.554 187.111 115.098 185.722C115.642 184.332 114.957 182.765 113.567 182.221C112.178 181.677 110.61 182.362 110.066 183.751C109.522 185.141 110.207 186.708 111.597 187.252Z" fill="#23BB86"/>
<path d="M180.931 48.2768C178.303 38.2379 168.814 15.2777 151.892 3.7511" stroke="#FE9076" stroke-width="0.736823" stroke-linecap="round"/>
<path d="M46.5875 65.0496C40.0466 56.9924 21.9215 40.0015 1.74854 36.4939" stroke="#FFA400" stroke-width="0.736823" stroke-linecap="round"/>
<path d="M101.085 188.663C95.2884 190.777 80.6962 197.513 68.7002 207.545" stroke="#23BB86" stroke-width="0.736823" stroke-linecap="round"/>
<path fill-rule="evenodd" clip-rule="evenodd" d="M299.948 129.859C297.852 125.308 295.397 121.773 293.774 119.91C293.743 124.305 294.42 128.249 295.469 131.676C292.241 133.233 288.886 135.414 285.681 138.422C288.151 138.347 292.413 137.749 297.177 136.198C299.373 141.04 302.149 144.384 303.969 145.94C303.846 141.865 302.988 137.959 301.784 134.436C305.188 132.928 308.637 130.905 311.713 128.228C309.334 127.949 304.995 128.182 299.948 129.859Z" fill="url(#paint4_linear_262_616)"/>
<path fill-rule="evenodd" clip-rule="evenodd" d="M316.518 84.2737C315.123 81.2448 313.489 78.8919 312.409 77.6514C312.387 80.5774 312.838 83.2022 313.537 85.4833C311.388 86.5199 309.155 87.9711 307.021 89.9739C308.666 89.9241 311.503 89.5258 314.673 88.4933C316.135 91.7165 317.983 93.942 319.194 94.978C319.113 92.2655 318.542 89.6659 317.74 87.3207C320.005 86.3166 322.303 84.9701 324.349 83.1882C322.766 83.0028 319.877 83.1575 316.518 84.2737Z" fill="url(#paint5_linear_262_616)"/>
<path fill-rule="evenodd" clip-rule="evenodd" d="M361.364 38.9604C359.27 34.4101 356.812 30.8753 355.191 29.0115C355.159 33.4076 355.836 37.3505 356.886 40.7777C353.659 42.3349 350.304 44.5154 347.097 47.5238C349.567 47.4491 353.831 46.851 358.593 45.2996C360.789 50.1419 363.566 53.4854 365.386 55.042C365.261 50.9669 364.406 47.061 363.199 43.5381C366.605 42.0298 370.055 40.0066 373.129 37.3298C370.751 37.0508 366.41 37.2838 361.364 38.9604Z" fill="url(#paint6_linear_262_616)"/>
<path fill-rule="evenodd" clip-rule="evenodd" d="M368.472 140.981C365.385 134.286 361.775 129.086 359.388 126.344C359.34 132.811 360.336 138.613 361.881 143.655C357.131 145.946 352.197 149.153 347.479 153.58C351.115 153.47 357.384 152.59 364.393 150.307C367.626 157.432 371.708 162.35 374.386 164.641C374.204 158.645 372.944 152.899 371.172 147.716C376.18 145.497 381.255 142.52 385.778 138.582C382.279 138.172 375.896 138.515 368.472 140.981Z" fill="url(#paint7_linear_262_616)"/>
<path d="M350.903 97.6774C349.514 98.2215 347.946 97.5363 347.402 96.1469C346.858 94.7574 347.543 93.19 348.933 92.6459C350.322 92.1017 351.89 92.787 352.434 94.1764C352.978 95.5658 352.293 97.1333 350.903 97.6774Z" fill="#2F235A"/>
<path d="M284.002 63.7061C282.613 64.2502 281.045 63.565 280.501 62.1755C279.957 60.7861 280.642 59.2187 282.031 58.6746C283.421 58.1304 284.988 58.8157 285.533 60.2051C286.077 61.5945 285.392 63.1619 284.002 63.7061Z" fill="#FE9076"/>
<path d="M412.425 78.4647C411.035 79.0089 409.468 78.3236 408.924 76.9342C408.38 75.5448 409.065 73.9774 410.454 73.4332C411.844 72.8891 413.411 73.5743 413.955 74.9638C414.5 76.3532 413.814 77.9206 412.425 78.4647Z" fill="#FFA400"/>
<path d="M354.405 187.252C353.015 187.796 351.448 187.111 350.904 185.722C350.36 184.332 351.045 182.765 352.434 182.221C353.824 181.677 355.391 182.362 355.935 183.751C356.48 185.141 355.794 186.708 354.405 187.252Z" fill="#23BB86"/>
<path d="M285.069 48.2768C287.698 38.2379 297.186 15.2777 314.109 3.7511" stroke="#FE9076" stroke-width="0.736823" stroke-linecap="round"/>
<path d="M419.413 65.0496C425.953 56.9924 444.079 40.0015 464.251 36.4939" stroke="#FFA400" stroke-width="0.736823" stroke-linecap="round"/>
<path d="M364.916 188.663C370.713 190.777 385.305 197.513 397.3 207.545" stroke="#23BB86" stroke-width="0.736823" stroke-linecap="round"/>
<path d="M376.392 333.329H89.6086V531.562H376.392V333.329Z" fill="url(#paint8_linear_262_616)"/>
<mask id="mask0_262_616" style="mask-type:alpha" maskUnits="userSpaceOnUse" x="89" y="333" width="288" height="199">
<path d="M376.392 333.329H89.6086V531.562H376.392V333.329Z" fill="#C4C4C4"/>
</mask>
<g mask="url(#mask0_262_616)">
<path d="M103.178 328.283H298.458L254.32 404.917H59.0403L103.178 328.283Z" fill="black" fill-opacity="0.07"/>
<path d="M571.416 333.329H284.633V531.561H571.416V333.329Z" fill="url(#paint9_linear_262_616)"/>
</g>
<path d="M89.3551 333.329H284.635L246.913 396.278H51.6331L89.3551 333.329Z" fill="url(#paint10_linear_262_616)"/>
<mask id="mask1_262_616" style="mask-type:alpha" maskUnits="userSpaceOnUse" x="284" y="333" width="93" height="199">
<path d="M376.391 333.329H284.634V531.562H376.391V333.329Z" fill="#C4C4C4"/>
</mask>
<g mask="url(#mask1_262_616)">
<path d="M365.219 333.001H273.32L316.503 405.473H408.404L365.219 333.001Z" fill="black" fill-opacity="0.07"/>
</g>
<path d="M376.534 333.329H284.634L322.357 396.278H414.258L376.534 333.329Z" fill="url(#paint11_linear_262_616)"/>
<path d="M184.886 309.939C199.854 309.939 211.987 297.806 211.987 282.839C211.987 267.873 199.854 255.74 184.886 255.74C169.919 255.74 157.786 267.873 157.786 282.839C157.786 297.806 169.919 309.939 184.886 309.939Z" fill="url(#paint12_linear_262_616)"/>
<path d="M290.857 255.74C305.32 255.74 317.045 244.016 317.045 229.554C317.045 215.091 305.32 203.367 290.857 203.367C276.394 203.367 264.67 215.091 264.67 229.554C264.67 244.016 276.394 255.74 290.857 255.74Z" fill="url(#paint13_linear_262_616)"/>
<path d="M190.87 203.367C202.533 203.367 211.987 193.913 211.987 182.251C211.987 170.588 202.533 161.134 190.87 161.134C179.206 161.134 169.752 170.588 169.752 182.251C169.752 193.913 179.206 203.367 190.87 203.367Z" fill="url(#paint14_linear_262_616)"/>
<path d="M271.754 153.034C282.305 153.034 290.858 144.482 290.858 133.932C290.858 123.382 282.305 114.83 271.754 114.83C261.204 114.83 252.651 123.382 252.651 133.932C252.651 144.482 261.204 153.034 271.754 153.034Z" fill="url(#paint15_linear_262_616)"/>
<path d="M222 102C229.18 102 235 96.1797 235 89C235 81.8203 229.18 76 222 76C214.82 76 209 81.8203 209 89C209 96.1797 214.82 102 222 102Z" fill="url(#paint16_linear_262_616)"/>
<path d="M240.665 210.763C243.574 210.763 245.932 208.405 245.932 205.497C245.932 202.589 243.574 200.231 240.665 200.231C237.757 200.231 235.399 202.589 235.399 205.497C235.399 208.405 237.757 210.763 240.665 210.763Z" fill="#FFA800" fill-opacity="0.23"/>
<path d="M322.312 171.666C325.221 171.666 327.579 169.309 327.579 166.4C327.579 163.492 325.221 161.134 322.312 161.134C319.404 161.134 317.046 163.492 317.046 166.4C317.046 169.309 319.404 171.666 322.312 171.666Z" fill="#FFA800" fill-opacity="0.23"/>
<path d="M196.136 108.763C199.044 108.763 201.402 106.405 201.402 103.497C201.402 100.588 199.044 98.2303 196.136 98.2303C193.227 98.2303 190.869 100.588 190.869 103.497C190.869 106.405 193.227 108.763 196.136 108.763Z" fill="#FFA800" fill-opacity="0.23"/>
<path d="M266.488 299.801C269.396 299.801 271.754 297.444 271.754 294.535C271.754 291.627 269.396 289.269 266.488 289.269C263.579 289.269 261.221 291.627 261.221 294.535C261.221 297.444 263.579 299.801 266.488 299.801Z" fill="#FFA800" fill-opacity="0.23"/>
<path d="M144.721 216.029C147.629 216.029 149.987 213.672 149.987 210.763C149.987 207.855 147.629 205.497 144.721 205.497C141.812 205.497 139.454 207.855 139.454 210.763C139.454 213.672 141.812 216.029 144.721 216.029Z" fill="#FFA800" fill-opacity="0.23"/>
<path d="M377.067 334.268H89.3816L45.1997 61.8705H430.121L377.067 334.268Z" fill="url(#paint17_linear_262_616)"/>
<path d="M182.813 510.397C183.763 513.077 180.859 515.534 178.402 514.082L160.815 504.088C157.633 502.246 155.678 497.835 156.348 494.262L161.597 468.187C162.211 465.117 166.454 464.837 167.515 467.741L182.813 510.397Z" fill="#F53838"/>
<path d="M235.185 504.088L217.542 514.138C215.085 515.534 212.182 513.133 213.131 510.453L228.485 467.406C229.546 464.503 233.789 464.782 234.403 467.853L239.708 494.262C240.322 497.835 238.368 502.246 235.185 504.088Z" fill="#F53838"/>
<path d="M226.363 437.87C227.703 439.545 228.094 441.778 227.368 443.788L200.903 517.767C199.954 520.503 196.102 520.503 195.152 517.767L168.687 443.844C167.962 441.834 168.352 439.601 169.692 437.926L191.021 411.684C194.873 407.05 201.238 407.05 205.147 411.684L226.363 437.87Z" fill="#F53838"/>
<defs>
<linearGradient id="paint0_linear_262_616" x1="171.428" y1="122.793" x2="161.857" y2="147.234" gradientUnits="userSpaceOnUse">
<stop stop-color="#FFE89E"/>
<stop offset="1" stop-color="#FFBF1A"/>
</linearGradient>
<linearGradient id="paint1_linear_262_616" x1="153.061" y1="79.5705" x2="146.689" y2="95.8393" gradientUnits="userSpaceOnUse">
<stop stop-color="#FFE89E"/>
<stop offset="1" stop-color="#FFBF1A"/>
</linearGradient>
<linearGradient id="paint2_linear_262_616" x1="110.012" y1="31.8947" x2="100.44" y2="56.3359" gradientUnits="userSpaceOnUse">
<stop stop-color="#FFE89E"/>
<stop offset="1" stop-color="#FFBF1A"/>
</linearGradient>
<linearGradient id="paint3_linear_262_616" x1="105.439" y1="130.586" x2="91.3574" y2="166.544" gradientUnits="userSpaceOnUse">
<stop stop-color="#FFE89E"/>
<stop offset="1" stop-color="#FFBF1A"/>
</linearGradient>
<linearGradient id="paint4_linear_262_616" x1="294.572" y1="122.793" x2="304.143" y2="147.234" gradientUnits="userSpaceOnUse">
<stop stop-color="#FFE89E"/>
<stop offset="1" stop-color="#FFBF1A"/>
</linearGradient>
<linearGradient id="paint5_linear_262_616" x1="312.94" y1="79.5705" x2="319.312" y2="95.8393" gradientUnits="userSpaceOnUse">
<stop stop-color="#FFE89E"/>
<stop offset="1" stop-color="#FFBF1A"/>
</linearGradient>
<linearGradient id="paint6_linear_262_616" x1="355.989" y1="31.8947" x2="365.56" y2="56.3359" gradientUnits="userSpaceOnUse">
<stop stop-color="#FFE89E"/>
<stop offset="1" stop-color="#FFBF1A"/>
</linearGradient>
<linearGradient id="paint7_linear_262_616" x1="360.559" y1="130.586" x2="374.643" y2="166.544" gradientUnits="userSpaceOnUse">
<stop stop-color="#FFE89E"/>
<stop offset="1" stop-color="#FFBF1A"/>
</linearGradient>
<linearGradient id="paint8_linear_262_616" x1="185.407" y1="296.63" x2="71.1195" y2="611.428" gradientUnits="userSpaceOnUse">
<stop stop-color="#FFD481"/>
<stop offset="1" stop-color="#FA620C"/>
</linearGradient>
<linearGradient id="paint9_linear_262_616" x1="138.538" y1="320.757" x2="485.403" y2="691.446" gradientUnits="userSpaceOnUse">
<stop stop-color="#FFD481"/>
<stop offset="0.83311" stop-color="#FA620C"/>
</linearGradient>
<linearGradient id="paint10_linear_262_616" x1="93.3739" y1="310.833" x2="84.0941" y2="444.953" gradientUnits="userSpaceOnUse">
<stop stop-color="#FFD481"/>
<stop offset="1" stop-color="#FA620C"/>
</linearGradient>
<linearGradient id="paint11_linear_262_616" x1="391.035" y1="310.833" x2="407.541" y2="443.542" gradientUnits="userSpaceOnUse">
<stop stop-color="#FFD481"/>
<stop offset="1" stop-color="#FA620C"/>
</linearGradient>
<linearGradient id="paint12_linear_262_616" x1="186.938" y1="246.796" x2="181.784" y2="319.944" gradientUnits="userSpaceOnUse">
<stop stop-color="#FF9F81"/>
<stop offset="1" stop-color="#F53838"/>
</linearGradient>
<linearGradient id="paint13_linear_262_616" x1="292.84" y1="194.725" x2="287.86" y2="265.408" gradientUnits="userSpaceOnUse">
<stop stop-color="#FF9F81"/>
<stop offset="1" stop-color="#F53838"/>
</linearGradient>
<linearGradient id="paint14_linear_262_616" x1="192.469" y1="154.165" x2="188.452" y2="211.164" gradientUnits="userSpaceOnUse">
<stop stop-color="#FF9F81"/>
<stop offset="1" stop-color="#F53838"/>
</linearGradient>
<linearGradient id="paint15_linear_262_616" x1="273.201" y1="108.525" x2="269.567" y2="160.087" gradientUnits="userSpaceOnUse">
<stop stop-color="#FF9F81"/>
<stop offset="1" stop-color="#F53838"/>
</linearGradient>
<linearGradient id="paint16_linear_262_616" x1="222.984" y1="71.7096" x2="220.512" y2="106.8" gradientUnits="userSpaceOnUse">
<stop stop-color="#FF9F81"/>
<stop offset="1" stop-color="#F53838"/>
</linearGradient>
<linearGradient id="paint17_linear_262_616" x1="234.498" y1="61.8705" x2="234.498" y2="640.586" gradientUnits="userSpaceOnUse">
<stop stop-color="white" stop-opacity="0"/>
<stop offset="1" stop-color="#FE9277"/>
</linearGradient>
</defs>
</svg>
