<svg width="130" height="130" viewBox="0 0 130 130" fill="none" xmlns="http://www.w3.org/2000/svg">
<path d="M50.2666 110.013C51.1875 112.613 48.3707 114.996 45.9874 113.588L28.9249 103.892C25.8374 102.104 23.9417 97.825 24.5917 94.3583L29.6834 69.0625C30.2792 66.0833 34.3958 65.8125 35.425 68.6292L50.2666 110.013Z" fill="#F53838"/>
<path d="M101.075 103.892L83.9584 113.642C81.5751 114.996 78.7584 112.667 79.6792 110.067L94.575 68.3042C95.6042 65.4875 99.7208 65.7583 100.317 68.7375L105.463 94.3583C106.058 97.825 104.163 102.104 101.075 103.892Z" fill="#F53838"/>
<path d="M92.5166 39.65C93.8166 41.275 94.1959 43.4417 93.4917 45.3917L67.8166 117.163C66.8957 119.817 63.1582 119.817 62.2374 117.163L36.5625 45.4458C35.8583 43.4958 36.2374 41.3292 37.5374 39.7042L58.2291 14.2458C61.9666 9.75 68.1416 9.75 71.9333 14.2458L92.5166 39.65Z" fill="#F53838"/>
</svg>
